<?xml version="1.0" standalone="yes"?>
<svg xmlns="http://www.w3.org/2000/svg" width="500" height="500">
<path style="fill:#eff1e9; stroke:none;" d="M0 0L0 500L500 500L500 0L0 0z"/>
<path style="fill:#93c05e; stroke:none;" d="M231.667 151.333L232.333 151.667L231.667 151.333z"/>
<path style="fill:#485b40; stroke:none;" d="M232 152C237.038 165.8 227.473 180.769 233.92 193.985C235.376 196.969 243.828 204.791 246.303 198.566C247.581 195.35 244.543 191.246 244.299 188C243.682 179.761 246.363 173.409 244 165C255.029 173.662 243.527 192.997 255.188 199.677C267.631 206.806 269.163 183.658 266.521 177C261.087 163.306 245.092 156.267 232 152z"/>
<path style="fill:#9da497; stroke:none;" d="M233.667 152.333L234.333 152.667L233.667 152.333z"/>
<path style="fill:#93c05e; stroke:none;" d="M232 153L233 154L232 153z"/>
<path style="fill:#9da497; stroke:none;" d="M236 153L237 154L236 153z"/>
<path style="fill:#93c05e; stroke:none;" d="M237 153L238 154L237 153z"/>
<path style="fill:#9da497; stroke:none;" d="M239 154L240 155L239 154M233 155L234 156L233 155M241 155L242 156L241 155z"/>
<path style="fill:#93c05e; stroke:none;" d="M233 156L234 157L233 156z"/>
<path style="fill:#9da497; stroke:none;" d="M243 156L244 157L243 156M245 157L246 158L245 157M247 158L248 159L247 158M249 159L250 160L249 159z"/>
<path style="fill:#93c05e; stroke:none;" d="M251 160L252 161L251 160z"/>
<path style="fill:#9da497; stroke:none;" d="M234 161L235 162L234 161M252 161L253 162L252 161z"/>
<path style="fill:#93c05e; stroke:none;" d="M254 162L255 163L254 162z"/>
<path style="fill:#9da497; stroke:none;" d="M255 163L256 164L255 163M256 164L257 165L256 164z"/>
<path style="fill:#93c05e; stroke:none;" d="M244 165L245 166L244 165z"/>
<path style="fill:#9da497; stroke:none;" d="M245 165L246 166L245 165M244 166L245 167L244 166M246 166L247 167L246 166z"/>
<path style="fill:#93c05e; stroke:none;" d="M259 166L260 167L259 166M233.333 167.667L233.667 168.333L233.333 167.667z"/>
<path style="fill:#9da497; stroke:none;" d="M247 167L248 168L247 167z"/>
<path style="fill:#93c05e; stroke:none;" d="M260 167L261 168L260 167M245 168L246 169L245 168M261 168L262 169L261 168z"/>
<path style="fill:#9da497; stroke:none;" d="M233.333 169.667L233.667 170.333L233.333 169.667M245.333 169.667L245.667 170.333L245.333 169.667M248 169L249 170L248 169M249.333 171.667L249.667 172.333L249.333 171.667M263 171L264 172L263 171z"/>
<path style="fill:#93c05e; stroke:none;" d="M264 172L265 173L264 172M232 173L233 174L232 173M249 173L250 174L249 173z"/>
<path style="fill:#9da497; stroke:none;" d="M232 174L233 175L232 174M265 174L266 175L265 174M266 176L267 177L266 176z"/>
<path style="fill:#93c05e; stroke:none;" d="M231 178L231 181L232 181L231 178z"/>
<path style="fill:#9da497; stroke:none;" d="M245.333 178.667L245.667 179.333L245.333 178.667z"/>
<path style="fill:#93c05e; stroke:none;" d="M267 178L268 179L267 178z"/>
<path style="fill:#9da497; stroke:none;" d="M267 179L268 180L267 179z"/>
<path style="fill:#93c05e; stroke:none;" d="M245.333 180.667L245.667 181.333L245.333 180.667z"/>
<path style="fill:#9da497; stroke:none;" d="M231 181L231 185L232 185L231 181z"/>
<path style="fill:#93c05e; stroke:none;" d="M249 182L249 190L250 190L249 182M268.333 182.667L268.667 183.333L268.333 182.667z"/>
<path style="fill:#9da497; stroke:none;" d="M244.333 184.667L244.667 185.333L244.333 184.667M268 184L268 188L269 188L268 184z"/>
<path style="fill:#93c05e; stroke:none;" d="M231 185L231 188L232 188L231 185M244 186L244 190L245 190L244 186M268 188L268 191L269 191L268 188z"/>
<path style="fill:#9da497; stroke:none;" d="M232 190L233 191L232 190M244 190L245 191L244 190z"/>
<path style="fill:#93c05e; stroke:none;" d="M232 191L233 192L232 191z"/>
<path style="fill:#9da497; stroke:none;" d="M245 192L246 193L245 192M233 193L234 194L233 193M250 193L251 194L250 193z"/>
<path style="fill:#93c05e; stroke:none;" d="M267 193L268 194L267 193M233 194L234 195L233 194M246 194L247 195L246 194M250 194L251 195L250 194z"/>
<path style="fill:#9da497; stroke:none;" d="M234 195L235 196L234 195M246 195L247 196L246 195z"/>
<path style="fill:#93c05e; stroke:none;" d="M266 195L267 196L266 195M251 196L252 197L251 196z"/>
<path style="fill:#9da497; stroke:none;" d="M265 196L266 197L265 196z"/>
<path style="fill:#93c05e; stroke:none;" d="M235 197L236 198L235 197M247 197L247 200L248 200L247 197z"/>
<path style="fill:#9da497; stroke:none;" d="M252 197L253 198L252 197M264 197L265 198L264 197z"/>
<path style="fill:#93c05e; stroke:none;" d="M236 198L237 199L236 198M237 199L238 200L237 199z"/>
<path style="fill:#9da497; stroke:none;" d="M238 199L239 200L238 199M254 199L255 200L254 199M262 199L263 200L262 199z"/>
<path style="fill:#93c05e; stroke:none;" d="M239 200L240 201L239 200z"/>
<path style="fill:#9da497; stroke:none;" d="M240 200L241 201L240 200M245 200L246 201L245 200z"/>
<path style="fill:#93c05e; stroke:none;" d="M246 200L247 201L246 200z"/>
<path style="fill:#9da497; stroke:none;" d="M255 200L256 201L255 200M261 200L262 201L261 200z"/>
<path style="fill:#93c05e; stroke:none;" d="M258 201L259 202L258 201M227.667 202.333L228.333 202.667L227.667 202.333z"/>
<path style="fill:#84cb14; stroke:none;" d="M204 209C208.803 220.343 223.649 233.667 236.96 227.991C241.878 225.893 245.529 218.254 238.941 215.603C231.204 212.491 223.376 219.047 215 216L215 215L240 211C238.661 193.299 213.497 208.92 204 209z"/>
<path style="fill:#93c05e; stroke:none;" d="M233.667 202.333L234.333 202.667L233.667 202.333M265.667 202.333L266.333 202.667L265.667 202.333z"/>
<path style="fill:#84cb14; stroke:none;" d="M284 216L284 217L258 221C262.725 238.938 284.031 221.286 295 223C290.561 211.539 275.182 197.937 262.015 203.703C257.022 205.89 253.455 213.528 260.059 216.257C267.604 219.375 275.617 212.946 284 216z"/>
<path style="fill:#93c05e; stroke:none;" d="M270 202L270 203L273 203L270 202M223 203L224 204L223 203M275 203L276 204L275 203M220 204L221 205L220 204M277 204L278 205L277 204M218 205L219 206L218 205z"/>
<path style="fill:#485b40; stroke:none;" d="M247 205C247 214.253 250.582 233.11 245.397 240.961C239.399 250.041 223.644 253.9 219.603 264.09C217.443 269.537 219.963 276.246 218.701 281.91C218.087 284.669 215.815 286.983 216.376 289.97C216.938 292.963 219.966 294.868 222.853 293.573C228.499 291.04 221.083 272.446 223.603 266.09C226.667 258.362 240.441 250.862 247 246C247 256.372 251.286 279.236 245.397 287.91C237.305 299.829 215.078 304.807 209.603 318.171C207.404 323.54 209.87 330.369 208.701 336C208.091 338.942 205.775 341.766 206.376 344.891C206.877 347.499 209.431 348.91 211.946 348.149C219.101 345.985 209.878 327.964 212.603 321.09C214.279 316.863 219.559 314.012 223 311.35C230.934 305.21 238.631 298.53 247 293C247 299.712 243.259 310.078 244.376 315.891C245.124 319.789 250.608 320.873 252.816 317.566C255.24 313.937 251.646 309.672 251.144 306C249.866 296.658 251 286.43 251 277C257.573 281.347 272.644 290.085 274.682 298.015C276.162 303.773 270.07 320.05 274.434 322.968C277.194 324.813 281.011 323.15 281.624 319.956C282.195 316.984 279.91 314.656 279.299 311.91C278.097 306.516 280.406 300.25 278.397 295.039C274.436 284.773 258.692 280.879 252.603 271.91C247.613 264.56 251 246.714 251 238C259.415 245.328 268.315 252.187 277 259.197C280.873 262.323 286.609 265.523 288.972 270.039C292.303 276.406 283.861 297.092 291.093 298.458C293.604 298.932 295.966 297.383 296.508 294.891C297.194 291.744 294.912 288.96 294.299 286C293.171 280.561 295.38 274.261 293.397 269.015C287.15 252.489 258.057 248.188 251.603 231.91C248.868 225.013 255.562 207.842 247 205z"/>
<path style="fill:#9da497; stroke:none;" d="M250 205L251 206L250 205z"/>
<path style="fill:#93c05e; stroke:none;" d="M279 205L280 206L279 205M216 206L217 207L216 206M214 207L215 208L214 207M282 207L283 208L282 207M211 208L212 209L211 208M240 208L240 211L241 211L240 208M256 208L257 209L256 208M283 208L284 209L283 208M203 209L204 210L203 209M255 210L255 213L256 213L255 210M230 211L231 212L230 211M235 211L235 212L240 212L235 211M205 212L206 213L205 212M206 213L207 214L206 213M225 213L226 214L225 213M288 213L289 214L288 213M223 214L224 215L223 214M235.667 214.333L236.333 214.667L235.667 214.333M256 214L257 215L256 214M273 214L274 215L273 214M289 214L290 215L289 214z"/>
<path style="fill:#eff1e9; stroke:none;" d="M215.667 215.333L216.333 215.667L215.667 215.333z"/>
<path style="fill:#93c05e; stroke:none;" d="M217.667 215.333L218.333 215.667L217.667 215.333M230 215L231 216L230 215M257 215L258 216L257 215M270 215L271 216L270 215M216 216L217 217L216 216M227 216L228 217L227 216M241 216L242 217L241 216M259 216L260 217L259 216M267 216L268 217L267 216M278 216L278 217L284 217L278 216M209 217L210 218L209 217M218.667 217.333L219.333 217.667L218.667 217.333M223.667 217.333L224.333 217.667L223.667 217.333M242 217L243 218L242 217M210 218L211 219L210 218M272 218L273 219L272 218M211 219L212 220L211 219M243.333 219.667L243.667 220.333L243.333 219.667M270 219L271 220L270 219M293 219L294 220L293 219M263.667 220.333L264.333 220.667L263.667 220.333M267 220L268 221L267 220M214 222L215 223L214 222M290 222L290 223L294 223L290 222M295 222L296 223L295 222M215 223L216 224L215 223M258 223L259 224L258 223M286 223L287 224L286 223M241 224L242 225L241 224M218 225L219 226L218 225M281 225L282 226L281 225M219 226L220 227L219 226M279 226L280 227L279 226M221 227L222 228L221 227M238 227L239 228L238 227M277 227L278 228L277 227M224 228L225 229L224 228M262 228L263 229L262 228M274 228L275 229L274 228M227 229L227 230L233 230L227 229M265 229L265 230L271 230L265 229z"/>
<path style="fill:#9da497; stroke:none;" d="M251 233L252 234L251 233M252 234L253 235L252 234M256 237L257 238L256 237M251 238L252 239L251 238M257 238L258 239L257 238M255 241L256 242L255 241M261 241L262 242L261 241M256 242L257 243L256 242M262 242L263 243L262 242M243 243L244 244L243 243M257 243L258 244L257 243M242 244L243 245L242 244M260 245L261 246L260 245M266 245L267 246L266 245M261 246L262 247L261 246M267 246L268 247L267 246M238 247L239 248L238 247M244 247L245 248L244 247M262 247L263 248L262 247M237 248L238 249L237 248M243 248L244 249L243 248M265 249L266 250L265 249M271 249L272 250L271 249M234 250L235 251L234 250M266 250L267 251L266 250M272 250L273 251L272 250M233 251L234 252L233 251M239 251L240 252L239 251M267 251L268 252L267 251M232 252L233 253L232 252M238 252L239 253L238 252M270 253L271 254L270 253M276 253L277 254L276 253M229 254L230 255L229 254M271 254L272 255L271 254M277 254L278 255L277 254M228 255L229 256L228 255M234 255L235 256L234 255M272 255L273 256L272 255M278 255L279 256L278 255M227 256L228 257L227 256M233 256L234 257L233 256M281 257L282 258L281 257M224 258L225 259L224 258M276 258L277 259L276 258M282 258L283 259L282 258M223 259L224 260L223 259M229 259L230 260L229 259M277 259L278 260L277 259M283 259L284 260L283 259M222 260L223 261L222 260M228 260L229 261L228 260M286 261L287 262L286 261M219 262L220 263L219 262M281 262L282 263L281 262M287 262L288 263L287 262M224 263L225 264L224 263M282 263L283 264L282 263M288 263L289 264L288 263M223 264L224 265L223 264M291 265L292 266L291 265M286 266L287 267L286 266M292 266L293 267L292 266M287 267L288 268L287 267M293 267L294 268L293 267M253 273L254 274L253 273M254 274L255 275L254 274M252 277L253 278L252 277M258 277L259 278L258 277M253 278L254 279L253 278M259 278L260 279L259 278M257 281L258 282L257 281M263 281L264 282L263 281M258 282L259 283L258 282M264 282L265 283L264 282M218 284L219 285L218 284M223 284L224 285L223 284M224 285L225 286L224 285M262 285L263 286L262 285M268 285L269 286L268 285M225 286L226 287L225 286M263 286L264 287L263 286M269 286L270 287L269 286M215 288L215 291L216 291L215 288M219.333 288.667L219.667 289.333L219.333 288.667z"/>
<path style="fill:#eff1e9; stroke:none;" d="M220 288L220 291L222 288L220 288z"/>
<path style="fill:#9da497; stroke:none;" d="M272 288L273 289L272 288M222 289L223 290L222 289M226 289L227 290L226 289M244 289L245 290L244 289M267 289L268 290L267 289M273 289L274 290L273 289M288 289L289 290L288 289M295 289L296 290L295 289M221 290L222 291L221 290M243 290L244 291L243 290M268 290L269 291L268 290M274 290L275 291L274 290M287 290L288 291L287 290M216 292L217 293L216 292M240 292L241 293L240 292M277 292L278 293L277 292z"/>
<path style="fill:#eff1e9; stroke:none;" d="M291 292L291 295L293 295L293 292L291 292z"/>
<path style="fill:#9da497; stroke:none;" d="M217 293L218 294L217 293M239 293L240 294L239 293M245 293L246 294L245 293M272 293L273 294L272 293M278 293L279 294L278 293M286.333 293.667L286.667 294.333L286.333 293.667M290.333 293.667L290.667 294.333L290.333 293.667M293.333 293.667L293.667 294.333L293.333 293.667M219 294L220 295L219 294M221.667 294.333L222.333 294.667L221.667 294.333M238 294L239 295L238 294M244 294L245 295L244 294M273 294L274 295L273 294M235 296L236 297L235 296M287 296L288 297L287 296M296 296L297 297L296 296M234 297L235 298L234 297M240 297L241 298L240 297M239 298L240 299L239 298M289 298L290 299L289 298M294 298L295 299L294 298M230 300L231 301L230 300M236 300L237 301L236 300M229 301L230 302L229 301M235 301L236 302L235 301M226 303L227 304L226 303M225 304L226 305L225 304M231 304L232 305L231 304M230 305L231 306L230 305M221 307L222 308L221 307M227 307L228 308L227 307M220 308L221 309L220 308M226 308L227 309L226 308M217 310L218 311L217 310M216 311L217 312L216 311M222 311L223 312L222 311M221 312L222 313L221 312M248 313L247 314L247 316L248 317L250 317L251 316L251 314L250 313L248 313M212 314L213 315L212 314M218 314L219 315L218 314M243.333 314.667L243.667 315.333L243.333 314.667z"/>
<path style="fill:#eff1e9; stroke:none;" d="M248 314L248 316L250 316L250 314L248 314z"/>
<path style="fill:#9da497; stroke:none;" d="M254.333 314.667L254.667 315.333L254.333 314.667M274 314L275 315L274 314M279 314L280 315L279 314M211 315L212 316L211 315M217 315L218 316L217 315M272 316L273 317L272 316M253 317L254 318L253 317M276 317L275 318L275 320L276 321L278 321L279 320L279 318L278 317L276 317M213 318L214 319L213 318M271.333 318.667L271.667 319.333L271.333 318.667z"/>
<path style="fill:#eff1e9; stroke:none;" d="M276 318L276 320L278 320L278 318L276 318z"/>
<path style="fill:#9da497; stroke:none;" d="M282 318L282 321L283 321L282 318M212 319L212 338L213 338L212 319M246 319L247 320L246 319M251 319L252 320L251 319M248.667 320.333L249.333 320.667L248.667 320.333M272 321L273 322L272 321M281 322L282 323L281 322M280 323L281 324L280 323M276 324L276 325L279 325L276 324M208 338L209 339L208 338M207 339L208 340L207 339M206 340L207 341L206 340M205 342L205 345L206 345L205 342M209 342L209 345L210 345L209 342z"/>
<path style="fill:#eff1e9; stroke:none;" d="M210 342L210 345L212 345L212 342L210 342z"/>
<path style="fill:#9da497; stroke:none;" d="M212 343L213 344L212 343M215 346L216 347L215 346M214 347L215 348L214 347M208 348L209 349L208 348M212 348L213 349L212 348z"/>
</svg>
