<svg xmlns="http://www.w3.org/2000/svg" width="400" height="400">
  <g fill-rule="evenodd">
    <path d="M181.8 160.8c-.136.22-.651.4-1.144.4-.493 0-1.138.225-1.435.5-.431.401-.481.399-.25-.01.162-.286-.345-.154-1.153.3-.793.446-1.797.81-2.23.81-.433 0-.788.18-.788.4 0 .22-.36.4-.8.4-.44 0-.801.135-.803.3-.005.443-2.018 1.3-3.053 1.3-.493 0-.995.159-1.115.354-.121.195-.716.446-1.324.559-.608.114-1.547.311-2.087.439-.688.164-1.261-.029-1.918-.646-.731-.687-1.085-.786-1.618-.452-.993.623-1.039 1.88-.1 2.73.45.407.818.981.818 1.275 0 .294.36.759.8 1.034.44.275.8.699.8.944 0 .244.54 1.009 1.2 1.7.66.691 1.2 1.423 1.2 1.627 0 .204.901 1.15 2.002 2.103 1.102.953 2.857 2.496 3.9 3.429 1.044.932 2.123 1.697 2.398 1.7.275.002.5.184.5.404 0 .22.349.4.776.4.427 0 .888.18 1.024.4.136.22.642.406 1.124.413.482.007 1.2.258 1.597.559.468.355 1.287.47 2.34.329 1.139-.153 1.722-.052 1.963.338.273.441.444.453.839.058.274-.274.965-.497 1.537-.497s1.219-.179 1.438-.398c.218-.218.889-.438 1.489-.488.601-.049 1.571-.59 2.157-1.202.586-.612 1.302-1.112 1.591-1.112.484 0 .703-.519.562-1.33-.031-.181.128-.215.353-.076.228.141.41-.102.41-.547 0-.44.18-.911.4-1.047.493-.305.536-4.2.047-4.2-.195 0-.439-.325-.543-.722-.103-.397-.799-1.023-1.546-1.391-1.141-.562-1.214-.67-.458-.678 1.05-.011 1.237-.794.2-.841-.418-.018-.499-.112-.2-.233 1.781-.718-.079-6.79-2.4-7.835-.605-.272-1.1-.631-1.1-.798 0-.166-.324-.302-.72-.302-.396 0-.962-.225-1.259-.5-.417-.387-.476-.389-.26-.006.263.466-3.25.35-3.722-.122-.091-.091-.442.058-.779.331-.489.397-.553.396-.313-.003.165-.275.21-.5.1-.5-.11 0-.311.18-.447.4m35.591-.015c.112.182-1.305.336-3.149.342-1.845.006-3.689.177-4.098.38-.409.202-1.147.576-1.639.831-1.131.585-1.428.585-1.067 0 .177-.286.11-.353-.176-.176-.254.157-.462.461-.462.675 0 .578-2.568 3.04-3.015 2.891-.225-.075-.385 1.201-.385 3.076 0 2.573.11 3.163.557 2.991.443-.17.459-.096.077.364-.397.478-.338.541.343.363.584-.153.823-.024.823.441 0 .799 1.584 1.474 4 1.705 2.867.274 2.891.933.027.75-3.38-.216-3.465-.159-3.364 2.27.12 2.881 1.984 5.91 3.637 5.912.275 0 .5.18.5.4 0 .22.504.4 1.12.4.616 0 1.362.225 1.659.5.431.4.482.4.256 0-.199-.353.083-.5.965-.5.805 0 1.151.156.975.44-.197.32-.047.32.55 0 .453-.242 1.364-.44 2.025-.44.662 0 1.314-.18 1.45-.4.136-.22.427-.4.647-.4.22 0 .267.215.104.479-.162.263.26.083.939-.4.678-.484 1.51-.879 1.848-.879.338 0 .726-.18.862-.4.136-.22.597-.4 1.024-.4.427 0 .776-.18.776-.4 0-.22.405-.406.9-.413.495-.007 1.242-.271 1.659-.587.417-.316.9-.487 1.072-.381.173.107.427.011.565-.212.138-.224.691-.407 1.228-.407s.976-.151.976-.336c0-.432 2.427-.348 3.162.109.377.235.471.204.287-.094-.154-.249.215-.189.838.135 1.668.871 2.746.031 1.652-1.287-.371-.447-.361-.545.043-.45.285.068.605-.114.71-.404.115-.314-.05-.476-.406-.4-.675.143-3.086-2.186-3.086-2.981 0-.283-.36-.775-.8-1.092-.44-.317-.8-.801-.8-1.074 0-.274-.36-.691-.8-.926-.44-.235-.8-.615-.8-.843 0-.535-.81-1.33-1.7-1.667-.385-.146-.7-.541-.7-.877a.623.623 0 0 0-.629-.613c-.719 0-1.771-.934-1.771-1.573 0-.236-.72-.741-1.6-1.123-.88-.381-1.6-.83-1.6-.998 0-.168-.349-.306-.776-.306-.427 0-.888-.18-1.024-.4-.136-.22-.607-.4-1.047-.4-.503 0-.694-.172-.515-.462.178-.288.11-.353-.181-.173-.257.159-1.008.019-1.669-.311s-1.109-.451-.997-.269m-22.991 8.391c0 .647.148 1.268.328 1.379.18.112.317-.417.304-1.176-.012-.758-.16-1.379-.327-1.379-.168 0-.305.529-.305 1.176m-3.6 1.224c.468.302.357.389-.5.394-.605.003-1.1-.174-1.1-.394 0-.506.817-.506 1.6 0m-6.4.19c0 .104-.54.469-1.2.81-1.09.563-1.2.562-1.2-.013 0-.349.179-.524.397-.389.218.135.713.061 1.1-.164.818-.476.903-.5.903-.244m-2.8 1.41c0 .22-.324.4-.72.4-.396 0-.915.195-1.154.434-.238.238-.859.369-1.38.29-.783-.119-.636-.253.854-.783 2.274-.809 2.4-.827 2.4-.341m38.4.8c-.788.509-1.715.509-1.4 0 .136-.22.642-.397 1.124-.394.712.005.764.079.276.394m-2.228.755c.213.344-1.217.992-1.922.872-.193-.033-.675.234-1.072.593-.676.612-.708.6-.504-.183.16-.61.538-.837 1.396-.837.683 0 1.073-.168.93-.4-.136-.22.023-.4.353-.4.33 0 .698.16.819.355" fill="#84cb14"/>
    <path d="M187.2 124.176c0 .977.18 1.888.4 2.024.515.318.526 6.49.012 6.667-.214.073-.452.553-.53 1.066-.078.513-.361 1.069-.631 1.235-.371.23-.339.427.13.816.781.648.789 1.377.023 2.012-.327.272-.497.654-.376.849.121.195-.061.355-.404.355-.819 0-.79.385.076 1.043.428.325.505.537.2.544-.275.007-.5.289-.5.626 0 .336-.245.706-.544.821-1.358.521-.635 8.163.86 9.099.436.273.417.509-.101 1.3-.554.846-.558.967-.032.967.432 0 .562.337.462 1.195-.079.679.097 1.391.408 1.649.417.346.548.324.55-.095.001-.302.33-.053.73.554.4.607.849.982.997.834.149-.149.27-.06.27.196a.466.466 0 0 1-.462.467c-.259 0-.139.357.275.814.419.463 1.001.713 1.35.579.337-.129.485-.107.328.049-.428.428.502 1.358 1.358 1.358.413 0 .751-.27.751-.6 0-.808 1.051-.766 1.366.054.22.576.334.585.942.076.381-.318 1.142-.542 1.692-.498 1.912.153 2.833-2.243 1.338-3.483-1.102-.914-2.181-3.809-2.218-5.949-.027-1.577.632-5.854.968-6.281.25-.317.142-.883-.314-1.656-.811-1.373-.539-2.463.613-2.463 1.137 0 1.012-.809-.287-1.857-.938-.757-1.031-1.001-.629-1.664.35-.576.355-.893.02-1.228-.248-.248-.319-.451-.157-.451s.114-.337-.107-.75c-.344-.642-.255-.75.617-.75.561 0 1.114.246 1.23.548.115.301.371.448.569.326.197-.122.545.269.773.869.299.786.287 1.17-.043 1.374-.711.439-.032 2.842.869 3.078 1.191.311 1.033 2.774-.242 3.776-.995.783-1.629 8.729-.696 8.729.633 0 1.395 1.692.9 1.998-.327.202-.158.626.556 1.396.564.609.933 1.255.821 1.436-.112.182.207.547.708.813.501.265 1.202.814 1.558 1.22.356.405.952.737 1.325.737.474 0 .641.271.553.9-.105.756.085.92 1.183 1.026.819.079 1.207.288 1.038.562-.163.263-.084.321.199.146.257-.159.348-.483.202-.72-.178-.288.077-.344.769-.171.62.156 1.15.074 1.321-.203.189-.306.095-.364-.275-.171-.309.16-.157-.066.338-.503 1.007-.889 1.213-1.872.32-1.529-.387.148-.505.03-.357-.357.259-.676.937-.781.937-.147 0 .239.225.351.5.25.275-.1.453-.391.396-.644-.057-.254.16-.563.483-.686.411-.158.517-.573.354-1.389-.147-.734-.067-1.164.217-1.164.248 0 .45-.349.45-.776 0-.427.18-.888.4-1.024.221-.136.4-1.93.4-4 0-2.07-.179-3.864-.4-4-.22-.136-.4-.689-.4-1.229 0-.54-.208-1.384-.462-1.876-.255-.492-.647-1.255-.871-1.695-.225-.44-.628-1.219-.896-1.73-1.473-2.813-8.948-10.313-10.106-10.142-.476.07-.865-.065-.865-.3s-.265-.428-.588-.428c-.323 0-1.268-.384-2.1-.854a71.368 71.368 0 0 0-3.112-1.636c-.88-.43-2.292-1.126-3.138-1.546-.846-.42-1.87-.764-2.276-.764-.406 0-.85-.18-.986-.4-.558-.902-1-.294-1 1.376m21.6 36.457c0 .349-.214.562-.475.475-.742-.247-.865-1.108-.158-1.108.348 0 .633.285.633.633m-25.167-.089c.092.079.707.264 1.367.412.876.196 1.038.159.6-.138-.54-.365-2.368-.62-1.967-.274m-19.041 5.87c-.162.261.141.341.825.217 1.475-.267 1.747-.631.473-.631-.573 0-1.158.186-1.298.414m18.905 4.42c-.387.225-.882.299-1.1.164-.218-.135-.397.04-.397.389 0 .575.11.576 1.2.013.66-.341 1.2-.706 1.2-.81 0-.256-.085-.232-.903.244m-3.701 1.573c-.138.223-.417.303-.62.178-.204-.126-.686-.044-1.073.181-.613.357-.572.411.317.422.561.007 1.191-.151 1.4-.349.209-.199.74-.448 1.18-.554.74-.178.734-.196-.076-.239-.482-.025-.99.137-1.128.361m27.141 2.53c.002.289.902.495 2.398.548 2.883.103 2.59-.552-.368-.824-1.383-.127-2.033-.039-2.03.276" fill="#548443"/>
    <path d="M186.24 127.466c.368 1.533.56 1.678.56.424 0-.573-.187-1.158-.416-1.3-.273-.169-.322.133-.144.876m18.16 2.034c0 .169.36.532.8.807.44.275.8.362.8.193 0-.169-.36-.532-.8-.807-.44-.275-.8-.362-.8-.193m-17.94.767a7.271 7.271 0 0 1-.319 1.6c-.199.564-.146.629.231.282.27-.248.413-.968.319-1.6-.121-.81-.189-.893-.231-.282m10.74 6.109c0 .427.18.888.4 1.024.22.136.4 1.237.4 2.447 0 1.214-.163 2.1-.363 1.976-.199-.123-.268.136-.153.576.236.904.749 1.05 1.051.301.155-.385.209-.379.233.024.064 1.053.832-.007.832-1.148 0-.647-.18-1.176-.4-1.176-.22 0-.4-.594-.4-1.32 0-1.379-.783-3.471-1.3-3.477-.165-.002-.3.346-.3.773m14.093.024c.469.751 1.107 1.08 1.107.571 0-.298-1.075-1.371-1.375-1.371-.127 0-.007.36.268.8m-.719 24.442c-.122.197.229.358.779.358 1.303 0 1.663-.582.406-.658-.53-.032-1.063.103-1.185.3M196 161.6c-.533.345-.533.388 0 .388.33 0 .87-.175 1.2-.388.533-.345.533-.388 0-.388-.33 0-.87.175-1.2.388m1 1.318c-1.215.732-1.387 1.123-1.394 3.158-.003 1.032-.186 1.988-.406 2.124-.641.396-.462.999.3 1.006.573.005.596.072.128.368-.867.549-.874 1.689-.012 1.914 1.042.273 1.257 1.216.812 3.564-.208 1.1-.326 2.348-.26 2.774.065.426-.079.902-.321 1.057-.312.201-.291.433.073.797.418.418.584.402.891-.083.245-.389.379 1.55.383 5.572l.006 6.168-1.807 1.732c-.994.952-1.957 1.731-2.141 1.731-.183 0-.855.497-1.493 1.104A27.44 27.44 0 0 1 189.2 198a27.44 27.44 0 0 0-2.559 2.096c-.638.607-1.313 1.104-1.5 1.104-.187 0-1.082.72-1.989 1.6-.907.88-1.807 1.6-2 1.6-.193 0-1.093.72-2 1.6-.907.88-1.815 1.6-2.018 1.6-.204 0-.857.486-1.452 1.081l-1.082 1.081-.121 8.219c-.116 7.876-.158 8.253-1 9.023-3.898 3.568-1.924 9.397 3.181 9.396 2.481-.001 4.54-1.145 4.54-2.523 0-.346.18-.741.4-.877.22-.136.4-.867.4-1.624 0-.757-.18-1.376-.4-1.376-.22 0-.4-.322-.4-.715 0-.393-.533-1.338-1.184-2.1l-1.183-1.385-.004-6.4c-.004-6.334.272-7.8 1.467-7.8.224 0 1.149-.72 2.056-1.6.907-.88 1.797-1.6 1.978-1.6.181 0 1.292-.9 2.47-2 1.178-1.1 2.307-2 2.51-2 .203 0 .873-.54 1.49-1.2.617-.66 1.292-1.2 1.501-1.2.209 0 .928-.523 1.597-1.163.67-.64 1.656-1.45 2.192-1.802l.974-.638-.032 15.301L197 229l-1.287 1.3c-.707.715-1.435 1.3-1.616 1.3-.181 0-1.125.72-2.097 1.6-.972.88-1.91 1.6-2.084 1.6-.173 0-1.057.72-1.964 1.6-.907.88-1.808 1.6-2.004 1.6-.195 0-.92.54-1.611 1.2-.691.66-1.427 1.2-1.636 1.2-.209 0-.884.54-1.501 1.2-.617.66-1.292 1.2-1.501 1.2-.209 0-.902.497-1.54 1.104A27.44 27.44 0 0 1 175.6 246a27.44 27.44 0 0 0-2.559 2.096c-.638.607-1.321 1.104-1.519 1.104-.197 0-.795.437-1.329.971a13.047 13.047 0 0 1-2.154 1.669c-1.548.915-1.52.718-1.4 9.857l.104 7.898-1.572 1.54c-1.562 1.531-2.438 6.065-1.171 6.065.22 0 .4.33.4.732 0 1.2 4.427 3.001 5.28 2.148.264-.264.722-.48 1.018-.48 2.773 0 3.799-6.467 1.384-8.723l-1.282-1.198v-13.587l1.042-.683c.574-.376 1.59-1.206 2.26-1.846.669-.64 1.388-1.163 1.597-1.163.209 0 .884-.54 1.501-1.2.617-.66 1.281-1.2 1.476-1.2.196 0 1.152-.72 2.124-1.6.972-.88 1.928-1.6 2.124-1.6.195 0 .859-.54 1.476-1.2.617-.66 1.281-1.2 1.476-1.2.196 0 1.152-.72 2.124-1.6.972-.88 1.928-1.6 2.124-1.6.195 0 .859-.54 1.476-1.2.617-.66 1.285-1.2 1.485-1.2.2 0 .718-.329 1.15-.732.432-.403 1.276-1.053 1.875-1.446l1.09-.714v10.802l-1.196.945c-.658.52-1.198 1.26-1.2 1.645-.002.385-.184.7-.404.7-.22 0-.4.9-.4 2s.18 2 .4 2c.22 0 .4.283.4.629 0 .808.963 1.771 1.771 1.771.346 0 .629.18.629.4 0 .22.9.4 2 .4s2-.18 2-.4c0-.22.283-.4.629-.4.808 0 1.771-.963 1.771-1.771 0-.346.18-.629.4-.629.22 0 .4-.9.4-2s-.18-2-.4-2c-.22 0-.402-.315-.404-.7-.002-.385-.542-1.125-1.2-1.645l-1.196-.945v-10.526c0-9.28.079-10.606.665-11.192.562-.562.577-.72.1-1.022-.405-.256-.422-.359-.061-.364.277-.003 1.068.534 1.759 1.194.691.66 1.427 1.2 1.636 1.2.209 0 .857.502 1.441 1.115.583.614 1.69 1.55 2.46 2.081.77.532 1.691 1.29 2.047 1.685.356.395.829.719 1.052.719.222 0 1.146.72 2.053 1.6.907.88 1.794 1.6 1.97 1.6.177 0 .987.609 1.8 1.354l1.478 1.354v6.646c0 5.775-.082 6.646-.629 6.646-.874 0-1.771.986-1.771 1.948 0 .443-.18.916-.4 1.052-.22.136-.4.957-.4 1.824 0 .867.18 1.576.4 1.576.22 0 .4.283.4.629 0 .808.963 1.771 1.771 1.771.346 0 .629.18.629.4 0 1.18 4.32.4 5.76-1.04 1.44-1.44 2.22-5.76 1.04-5.76-.22 0-.4-.32-.4-.712 0-.391-.36-.971-.8-1.288-.742-.535-.801-1.042-.81-6.988-.012-8.339-1.344-12.612-3.928-12.612-.201 0-1.107-.72-2.014-1.6-.907-.88-1.802-1.6-1.989-1.6-.187 0-.862-.497-1.5-1.104a26.11 26.11 0 0 0-2.559-2.081c-.77-.538-1.67-1.264-2-1.615-.33-.351-1.23-1.071-2-1.6-.77-.529-1.67-1.249-2-1.6-.33-.351-1.23-1.075-2-1.61-3.212-2.231-2.993-1.215-3.125-14.49-.116-11.724-.018-12.686 1.125-11.1.317.44.785.8 1.04.8s1.205.72 2.112 1.6c.907.88 1.807 1.6 2 1.6.193 0 1.093.72 2 1.6.907.88 1.843 1.6 2.08 1.6.237 0 1.122.72 1.968 1.6.846.88 1.71 1.6 1.92 1.6.211 0 1.125.72 2.032 1.6.907.88 1.807 1.6 2 1.6.193 0 1.093.72 2 1.6.907.88 1.807 1.6 2 1.6.193 0 1.093.72 2 1.6.907.88 1.8 1.6 1.985 1.6.185 0 1.174.792 2.199 1.76l1.864 1.761v12.958l-1.2 1.121c-.66.617-1.2 1.409-1.2 1.76 0 .352-.18.64-.4.64-.22 0-.4.9-.4 2s.18 2 .4 2c.22 0 .4.283.4.629 0 .874.986 1.771 1.948 1.771.443 0 .916.18 1.052.4.724 1.171 5.8-.623 5.8-2.051 0-.386.18-.813.4-.949.22-.136.4-1.047.4-2.024 0-.977-.18-1.776-.4-1.776-.22 0-.4-.288-.4-.64 0-.351-.54-1.143-1.2-1.76l-1.2-1.121v-16.216l-1.807-1.732c-.994-.952-1.962-1.731-2.152-1.731-.189 0-1.086-.72-1.993-1.6-.907-.88-1.807-1.6-2-1.6-.193 0-1.093-.72-2-1.6-.907-.88-1.807-1.6-2-1.6-.193 0-1.093-.72-2-1.6-.907-.88-1.807-1.6-2-1.6-.193 0-1.093-.72-2-1.6-.907-.88-1.797-1.6-1.978-1.6-.181 0-1.292-.9-2.47-2-1.178-1.1-2.289-2-2.47-2-.181 0-1.071-.72-1.978-1.6-.907-.88-1.825-1.6-2.04-1.6-.215 0-.868-.496-1.452-1.101-.583-.606-1.761-1.625-2.618-2.265l-1.557-1.163.237-5.029c.139-2.947.412-5.087.658-5.169.231-.077.42-.321.42-.543 0-.222.373-.878.829-1.457.455-.58.662-1.109.458-1.177-.204-.068-.286-.568-.182-1.11.103-.542.017-.986-.192-.986-.679 0-.868.465-.545 1.341.364.987.154 1.859-.448 1.859-.228 0-.325-.461-.216-1.032.125-.655-.004-1.108-.353-1.242-.303-.117-.551-.473-.551-.792 0-.32.18-.47.4-.334.227.14.4-.196.4-.776 0-.605.226-1.024.553-1.024.684 0 1.163-1.644.634-2.173-.213-.213-.387-.683-.387-1.045 0-1.606-4.061-2.911-5.8-1.864m5.8 3.882c0 .44-.18.8-.4.8-.22 0-.4-.36-.4-.8 0-.44.18-.8.4-.8.22 0 .4.36.4.8m-7.816 6.427c-.145.234-.168.522-.051.64.287.286 1.067-.219 1.067-.691 0-.511-.691-.477-1.016.051m10.414 1.575c-.4.442-.606.924-.458 1.071.251.251 1.86-1.182 1.86-1.656 0-.473-.714-.175-1.402.585m27.796 60.009c-.463.866-1.194.722-1.194-.235 0-.317.366-.576.814-.576.694 0 .75.12.38.811m-12.086 16.864c-.247.741-.984.825-1.246.142-.166-.432.009-.617.584-.617.456 0 .75.211.662.475" fill="#343334"/>
    <path d="M184.594 120.809c-.285.461.636 2.791 1.104 2.791.166 0 .302.619.302 1.376 0 .757.18 1.488.4 1.624.22.136.4 1.396.4 2.8s-.18 2.664-.4 2.8c-.575.355-.515 3.105.063 2.912.255-.085.53-.595.612-1.133.081-.539.323-1.039.537-1.112.514-.177.503-6.349-.012-6.667-.507-.314-.529-3.8-.024-3.8.207 0 .488.18.624.4.136.22.58.4.986.4s1.43.344 2.276.764c.846.42 2.258 1.116 3.138 1.546.88.43 2.28 1.166 3.112 1.636.832.47 1.777.854 2.1.854.323 0 .588.18.588.4 0 .22.375.4.833.4 1.259 0 .744-.78-1.249-1.892-.981-.548-1.844-1.157-1.917-1.352-.074-.196-.353-.356-.621-.356-.709 0-2.639-.949-2.643-1.3-.002-.165-.442-.3-.979-.3-.537 0-1.088-.18-1.224-.4-.136-.22-.597-.4-1.024-.4-.427 0-.776-.18-.776-.4 0-.22-.349-.4-.776-.4-.427 0-.888-.18-1.024-.4-.136-.22-.676-.4-1.2-.4-.524 0-1.064-.18-1.2-.4-.323-.522-1.681-.516-2.006.009m17.806 7.893c0 .166.945 1.206 2.1 2.31 2.63 2.515 6.228 6.63 6.871 7.858.268.511.727 1.38 1.021 1.93 1.057 1.982 1.208 2.404 1.208 3.371 0 .54.18 1.093.4 1.229.221.136.4 1.93.4 4 0 2.07-.179 3.864-.4 4-.22.136-.4.597-.4 1.024 0 .427-.193.776-.428.776-.557 0-.309 1.692.277 1.885.247.081.556-.175.686-.569.13-.394.51-1.436.845-2.316.702-1.848.881-9.8.22-9.8-.22 0-.4-.452-.4-1.005 0-.553-.165-1.318-.366-1.7-.202-.382-.656-1.362-1.01-2.176-.354-.815-.87-1.715-1.147-2-.277-.286-.943-1.149-1.481-1.919-1.926-2.756-8.396-8.072-8.396-6.898m-6.373 5.748c.221.413.269.75.107.75-.162 0-.091.203.157.451.335.335.33.651-.02 1.226-.392.645-.331.89.36 1.457.457.375.758.948.669 1.274-.139.512-.104.511.263-.008.494-.698.587-2.14.12-1.851-.174.107-.357-.332-.406-.977-.103-1.34.427-1.551.962-.382.589 1.288 1.494.411.977-.947-.228-.6-.576-.991-.773-.869-.198.122-.454-.025-.569-.326-.116-.302-.669-.548-1.23-.548-.872 0-.961.108-.617.75M186 136.351c0 .467-.18.849-.4.849-.22 0-.4.45-.4 1 0 .639.225 1 .624 1 .343 0 .525-.16.404-.355-.121-.195.049-.577.376-.849.76-.63.759-1.363-.004-1.996-.501-.416-.6-.358-.6.351m12.825 2.949c-.014.605.155 1.1.375 1.1s.4.529.4 1.176c0 .647-.18 1.288-.4 1.424-.22.136-.4.515-.4.842 0 .494.169.473.987-.123 1.178-.857 1.485-3.719.4-3.719-.337 0-.776-.405-.975-.9-.347-.865-.362-.857-.387.2m-13.945 1.18c-.6.6-.629 1.92-.043 1.92.241 0 .532-.36.647-.8.115-.44.379-.8.586-.8.208 0 .266-.18.13-.4-.327-.53-.735-.505-1.32.08m11.254.547c-.132.345.009 1.097.313 1.671l.553 1.043.127-1.07c.069-.589.294-1.071.5-1.071.205 0 .373-.27.373-.6 0-.798-1.558-.776-1.866.027m.566 3.602c-.165.167-.3.76-.3 1.318 0 .728.122.891.434.579.238-.238.373-.832.3-1.318-.074-.486-.269-.747-.434-.579m-.693 4.771c-.218 1.964.031 3.538.852 5.4.654 1.483 1.941 2.842 1.941 2.049 0-.247-.18-.449-.4-.449-.22 0-.4-.272-.4-.605 0-.333-.159-.918-.353-1.3-.935-1.838-1.239-2.837-1.368-4.495-.106-1.37-.171-1.514-.272-.6m-11.58.9c-.015.715.153 1.3.373 1.3s.406.405.413.9c.012.887.021.889.613.105.49-.648.505-.871.08-1.2-.287-.223-.731-.855-.987-1.405-.464-.999-.465-.999-.492.3m14.373 2.651c0 .633 1.111 1.672 1.437 1.345.266-.266-.708-1.896-1.133-1.896-.167 0-.304.248-.304.551m-13.587.949c.042.998 1.087 1.679 1.087.708 0-.589-.229-1.008-.55-1.008-.303 0-.544.135-.537.3m14.387 1.9c0 .33.18.6.4.6.22 0 .4.36.4.8 0 .44.18.8.4.8.22 0 .4.268.4.596 0 .506 3.38 3.365 4.013 3.394.117.006.25-.44.295-.99.057-.69-.118-1-.566-1-.356 0-.939-.332-1.295-.737-.356-.406-1.05-.951-1.543-1.212-.493-.261-.86-.605-.815-.763.131-.465-.882-2.088-1.303-2.088-.212 0-.386.27-.386.6m-12.597.99c-.317.998 2.805 4.285 4.362 4.592 2.777.549 3.712.571 4.999.121 1.443-.506 2.436-1.208 2.436-1.723 0-.153-.225-.096-.5.127s-.95.369-1.5.325c-.55-.044-1.311.18-1.692.498-.608.509-.722.5-.942-.076-.315-.82-1.366-.862-1.366-.054 0 .33-.338.6-.751.6-.856 0-1.786-.93-1.358-1.358.157-.156.009-.178-.328-.049-.349.134-.931-.116-1.35-.579-.414-.457-.534-.814-.275-.814.254 0 .462-.21.462-.467 0-.256-.121-.345-.27-.196-.148.148-.58-.203-.958-.78-.687-1.047-.689-1.047-.969-.167m25.347 1.01a6.78 6.78 0 0 0-.1.667c-.064.598-1.05.942-1.05.366 0-.634-.678-.529-.937.147-.148.387-.03.505.357.357.371-.143.58.031.58.482 0 .552.218.452 1-.457.549-.639.999-1.297 1-1.462 0-.33-.77-.421-.85-.1m-4.658 2.675c.247.742 1.108.865 1.108.158a.635.635 0 0 0-.633-.633c-.349 0-.562.214-.475.475M202 168.767c0 .422-.087 1.007-.193 1.3-.106.293.178.983.631 1.533.5.607.673.699.44.234-.211-.422-.292-1.457-.178-2.3.133-.996.047-1.534-.247-1.534-.249 0-.453.345-.453.767m-6.241 4.448c.076.888.229 1.706.341 1.818.344.345.747-1.853.489-2.667-.432-1.363-.97-.812-.83.849" fill="#4c843b"/>
    <path d="M202 172.376c0 .453.18.824.4.824.22 0 .4-.259.4-.576 0-.317-.18-.688-.4-.824-.22-.136-.4.123-.4.576m-6.4 2.977c0 .33.18.711.4.847.22.136.4-.023.4-.353 0-.33-.18-.711-.4-.847-.22-.136-.4.023-.4.353m36.4 59.223c0 .957.731 1.101 1.194.235.37-.691.314-.811-.38-.811-.448 0-.814.259-.814.576m-12.138 17.241c.262.683.999.599 1.246-.142.088-.264-.206-.475-.662-.475-.575 0-.75.185-.584.617" fill="#3c3436"/>
  </g>
</svg>
